<svg xmlns="http://www.w3.org/2000/svg" style="display: none">
    <symbol id='icon-logo' viewBox="0 0 196 52" width="196" height="52" fill="none">
        <path
            d="M57.3142 0.148804C58.0775 0.0756989 58.8435 0.0756989 59.6037 0.148804C59.6923 1.60441 59.6037 3.06002 59.6393 4.51562V46.8014C59.6393 48.2266 59.6975 49.6595 59.5914 51.0847C58.8383 51.1332 58.0827 51.1332 57.3297 51.0847C57.2184 49.6595 57.2915 48.2266 57.2663 46.8014C57.2663 32.7053 57.2663 18.6091 57.2663 4.51562C57.2967 3.06002 57.2236 1.59924 57.3142 0.148804Z"
            fill="#F5E8D5" />
        <path fill-rule="evenodd" clip-rule="evenodd"
            d="M22.0646 0.879292C20.7403 2.67583 19.2291 5.40527 18.4534 7.41206C17.8142 9.05916 17.6726 9.91118 17.6525 12.2511C17.637 13.8103 17.516 15.0893 17.3795 15.0893C17.2456 15.0893 16.7526 14.8188 16.2875 14.485C14.8927 13.492 14.337 13.8051 12.8936 16.398C11.3145 19.2361 10.0329 22.3518 9.58844 24.4291C9.18928 26.2916 9.40406 29.5949 10.0381 31.3636C10.2936 32.0688 10.4502 32.6982 10.3894 32.7584C10.326 32.8192 9.03467 32.5184 7.51889 32.0888C4.3599 31.1993 3.16177 31.275 1.75921 32.4576C-1.41983 35.1288 -0.103317 39.5816 4.20528 40.7364C6.03741 41.2294 6.04258 41.3355 4.26868 41.8841C2.07298 42.564 1.29924 43.112 0.599256 44.4841C-0.146016 45.9449 -0.146016 47.4057 0.599256 48.8665C1.25654 50.1552 2.9347 51.189 4.37478 51.189C4.86516 51.189 9.21451 50.0743 14.0387 48.7118C18.8629 47.3526 22.9897 46.238 23.2071 46.238C23.4264 46.238 27.594 47.3526 32.4635 48.7118C37.3356 50.0743 41.738 51.189 42.2432 51.189C44.404 51.189 46.5926 48.9266 46.5926 46.6979C46.5926 45.2727 45.6118 43.4303 44.4952 42.751C43.9945 42.4476 42.951 42.0458 42.1779 41.8614C40.5405 41.4668 40.5702 41.1938 42.2937 40.7494C44.1265 40.2764 45.3291 39.4199 45.9987 38.1111C47.0351 36.0791 46.6075 33.9384 44.8769 32.4809C43.4413 31.2724 42.2613 31.1941 39.0868 32.0888C37.571 32.5184 36.2798 32.8192 36.2164 32.7584C36.1555 32.6982 36.3147 32.0688 36.5702 31.3636C37.2903 29.362 37.4268 26.0315 36.8782 23.8229C36.2772 21.3995 33.5807 15.9536 30.6818 11.3034C29.4358 9.30177 27.4167 5.96098 26.1992 3.88173C23.7046 -0.378998 23.242 -0.715408 22.0646 0.879292ZM22.1837 5.26359C20.1316 8.85473 19.6056 11.2885 20.116 14.7936C20.5456 17.7197 20.3134 18.1467 18.4334 17.8892C17.7431 17.7954 16.783 17.5153 16.3004 17.2649L15.4206 16.8101L13.8492 20.0978C12.9849 21.9047 12.1128 24.1968 11.9135 25.1873C11.0162 29.6272 13.4824 34.6132 17.6823 36.8522C24.6698 40.5773 33.0425 36.7157 34.6948 29.0081C35.3773 25.8245 34.273 22.1978 30.7957 16.2136C26.4618 8.75122 23.4419 3.76527 23.2524 3.74975C23.1437 3.74263 22.6611 4.42257 22.1837 5.26359ZM22.3603 19.0796C21.7515 19.7517 20.3994 22.6552 20.3942 23.2944C20.3916 23.6107 20.1083 23.8151 19.5907 23.8759C18.9334 23.9516 18.6229 24.3003 17.844 25.8316C16.3004 28.8742 16.6187 31.1592 18.87 33.1905C21.3899 35.4652 25.2158 35.4652 27.7357 33.1905C30.7556 30.4663 30.3836 27.995 25.9967 21.6395C23.9097 18.6118 23.222 18.1292 22.3603 19.0796ZM22.9969 22.8117C22.7394 23.4664 22.7368 24.0299 22.9923 25.1317C23.4245 27.022 23.4167 27.6437 22.9542 27.9523C22.4437 28.2932 20.9855 28.0002 20.3586 27.4315C19.8838 27.0019 19.8256 27.0524 19.4969 28.1464C18.7821 30.5349 20.455 32.4045 23.2977 32.3948C25.1427 32.3896 26.2898 31.7809 26.9826 30.4385C27.6548 29.1401 27.2906 27.9872 25.2036 24.7985L23.3358 21.9474L22.9969 22.8117ZM3.5991 34.0147C2.26447 34.5504 1.97141 36.1775 2.99745 37.3452C3.493 37.9112 4.51387 38.3311 7.21548 39.0815C10.6294 40.0293 10.8364 40.052 12.1632 39.6528C12.9266 39.4225 14.0458 39.1016 14.6527 38.9373L15.7544 38.6416L14.1345 37.3225C12.717 36.1677 12.0145 35.8618 8.51906 34.8609C6.32335 34.2347 4.46082 33.7288 4.37995 33.7391C4.29909 33.7495 3.9478 33.8731 3.5991 34.0147ZM37.9424 34.8739C34.6443 35.8391 33.8686 36.1852 32.4965 37.3025C28.9713 40.1729 24.3237 41.3685 20.3082 40.4382C19.3682 40.2189 18.0769 40.4964 11.4303 42.3486C3.14689 44.6562 2.3434 45.0405 2.3434 46.7057C2.3434 47.5092 3.52082 48.8587 4.2234 48.8587C4.47376 48.8587 13.2902 46.4353 23.8159 43.4736C40.6996 38.7225 43.0344 37.9973 43.6361 37.3122C44.1614 36.7157 44.2752 36.3321 44.1387 35.6418C43.7292 33.6001 42.7258 33.4765 37.9424 34.8739ZM31.5183 43.7537C29.7114 44.2745 28.1749 44.7623 28.1018 44.838C27.955 44.9823 41.8318 48.8736 42.458 48.8639C43.1024 48.8561 44.2623 47.4665 44.2623 46.7057C44.2623 45.3284 43.1832 44.5954 39.7389 43.6379C37.9702 43.1475 36.1355 42.7581 35.6626 42.7736C35.1903 42.7885 33.3252 43.231 31.5183 43.7537Z"
            fill="#D85E0F" />
        <path
            d="M74.8576 15.3545C75.1281 15.3545 75.3428 15.3693 75.4975 15.3997C75.654 15.4276 75.7653 15.4754 75.8332 15.544C75.9018 15.6119 75.9341 15.718 75.9341 15.8649C75.9341 16.0117 75.9167 16.1987 75.8766 16.4335C75.7802 16.9944 75.775 17.5379 75.861 18.0632C75.9497 18.5865 76.0706 19.1099 76.2253 19.6352C76.5358 20.6639 77.0514 21.4499 77.7689 21.9933C78.487 22.5368 79.3027 22.9734 80.2156 23.3021C80.4653 23.4004 80.6374 23.4185 80.7234 23.3603C80.812 23.3021 80.9227 23.128 81.0592 22.8369C81.2921 22.2734 81.5243 21.7022 81.7566 21.1187C81.9895 20.5377 82.214 19.9561 82.4268 19.3726C82.6416 18.8291 82.8434 18.2857 83.0382 17.7423C83.2329 17.1995 83.4373 16.6561 83.6495 16.1127C83.7459 15.764 83.9503 15.5893 84.2615 15.5893C84.9408 15.5692 85.6207 15.5492 86.2981 15.5311C86.978 15.511 87.6579 15.511 88.3372 15.5311C88.7823 15.5311 89.0754 15.6171 89.2093 15.7918C89.3458 15.9658 89.3354 16.277 89.1815 16.724C88.7745 17.9267 88.3372 19.0918 87.8701 20.2168C87.1928 22.0412 86.4242 23.8028 85.5703 25.501C84.7163 27.1992 83.8041 28.8819 82.8337 30.5523C82.5251 31.0957 82.1564 31.5706 81.7288 31.9775C81.3018 32.387 80.8269 32.7558 80.301 33.0844C79.7582 33.4156 79.1992 33.7113 78.6286 33.9714C78.0548 34.2347 77.4305 34.3938 76.7506 34.454C76.3618 34.4721 75.9749 34.4773 75.5854 34.4669C75.1966 34.4566 74.8098 34.386 74.421 34.2495C73.8775 34.0749 73.3393 33.9086 72.8062 33.754C72.2725 33.6 71.7621 33.3574 71.2768 33.0262C70.9864 32.8321 70.8246 32.693 70.7968 32.6044C70.7664 32.5157 70.8221 32.2984 70.956 31.9497C71.1507 31.4063 71.3299 30.868 71.4942 30.3323C71.6611 29.7993 71.8507 29.2714 72.0629 28.748C72.2168 28.321 72.3993 28.0836 72.6011 28.0331C72.8062 27.9846 73.1019 28.0959 73.4907 28.3689C73.7029 28.5229 73.9202 28.6645 74.1454 28.7907C74.3679 28.9175 74.6053 29.0288 74.8576 29.1245C75.5958 29.3975 76.3133 29.3775 77.0113 29.0663C77.7113 28.7558 78.2644 28.301 78.6713 27.6993C78.8861 27.4263 78.8175 27.2342 78.4669 27.1158C78.08 26.9612 77.7009 26.8072 77.3322 26.6506C76.9628 26.4966 76.5837 26.3394 76.1974 26.1855C75.4593 25.8542 74.7949 25.4428 74.2036 24.9472C73.6123 24.4517 73.0637 23.9238 72.5584 23.3603C72.0351 22.7586 71.6411 22.0994 71.3778 21.3813C71.1177 20.6639 70.9184 19.916 70.7819 19.1403C70.6855 18.5762 70.6073 18.0483 70.549 17.5527C70.4908 17.0578 70.4332 16.5196 70.375 15.938C70.3543 15.665 70.375 15.4961 70.4332 15.4276C70.4908 15.3596 70.6551 15.3266 70.9281 15.3266C71.1028 15.3266 71.3778 15.3266 71.7569 15.3266C72.136 15.3266 72.528 15.3266 72.9375 15.3266C73.3445 15.3266 73.7281 15.3318 74.0871 15.3415C74.4462 15.3493 74.7037 15.3545 74.8576 15.3545ZM107.463 20.3048C107.444 22.3821 107.44 24.4472 107.45 26.5064C107.457 28.5636 107.455 30.6306 107.435 32.7053C107.435 32.9201 107.43 33.0792 107.419 33.1853C107.41 33.294 107.394 33.4532 107.377 33.666C107.336 33.9384 107.273 34.113 107.187 34.1913C107.098 34.2696 106.919 34.2974 106.649 34.2774C106.065 34.2392 105.484 34.2392 104.903 34.2774C104.318 34.3175 103.738 34.2974 103.154 34.2191C102.651 34.1609 102.398 33.8122 102.398 33.173V29.7663C102.398 29.4933 102.388 29.2183 102.368 28.935C102.351 28.6548 102.33 28.3689 102.31 28.0784C102.292 27.7472 102.125 27.6611 101.814 27.8158C101.718 27.8533 101.618 27.9063 101.511 27.9749C101.403 28.0428 101.301 28.0959 101.205 28.1366C100.796 28.2906 100.394 28.4472 99.995 28.6011C99.5984 28.7557 99.196 28.8922 98.7872 29.008C97.7786 29.2811 96.8412 29.2811 95.9795 29.008C95.1152 28.7376 94.2864 28.3107 93.4901 27.7271C93.023 27.3784 92.6413 26.9663 92.3405 26.4915C92.0396 26.016 91.8675 25.4777 91.83 24.8741C91.7918 24.2142 91.7517 23.5602 91.7136 22.9107C91.6761 22.2612 91.6456 21.5961 91.6249 20.9168C91.6249 20.4691 91.6249 20.0525 91.6249 19.6631C91.6249 19.2762 91.6301 18.8971 91.6405 18.5283C91.6502 18.1596 91.6605 17.7805 91.6709 17.3936C91.6806 17.0048 91.6858 16.5875 91.6858 16.1405C91.6858 15.7135 91.8779 15.5007 92.2674 15.5007C92.3631 15.5007 92.5727 15.4961 92.8936 15.4858C93.2119 15.4754 93.5658 15.4709 93.9552 15.4709C94.344 15.4709 94.7212 15.4709 95.0899 15.4709C95.4587 15.4709 95.7492 15.4709 95.9639 15.4709C96.1968 15.491 96.3812 15.511 96.5177 15.5311C96.6542 15.5492 96.75 15.5893 96.8082 15.6475C96.8664 15.7057 96.902 15.797 96.9091 15.9231C96.9195 16.0493 96.9246 16.2188 96.9246 16.4335C96.9046 17.2474 96.8813 17.97 96.8515 18.6014C96.8237 19.2309 96.7978 19.9464 96.7804 20.7421C96.7804 21.0708 96.7881 21.3917 96.8082 21.7022C96.8283 22.0134 96.8768 22.3317 96.9551 22.6629C97.0508 23.128 97.2552 23.502 97.5664 23.7821C97.875 24.0655 98.3117 24.2046 98.8752 24.2046C99.8456 24.2246 100.72 23.9438 101.496 23.3603C101.766 23.1481 101.976 22.9204 102.12 22.6778C102.267 22.4352 102.34 22.1195 102.34 21.73C102.299 20.8004 102.292 19.8979 102.31 19.0239C102.33 18.1492 102.34 17.2474 102.34 16.3171V16.0823C102.36 15.7536 102.413 15.5388 102.499 15.4431C102.588 15.3467 102.795 15.2962 103.126 15.2962C103.204 15.2962 103.389 15.2962 103.679 15.2962C103.97 15.2962 104.296 15.2962 104.655 15.2962C105.014 15.2962 105.363 15.2962 105.701 15.2962C106.043 15.2962 106.318 15.2962 106.532 15.2962C106.919 15.2788 107.162 15.3266 107.26 15.4431C107.356 15.5589 107.424 15.8118 107.463 16.1987C107.483 16.5293 107.493 16.931 107.493 17.4091C107.493 17.884 107.493 18.3336 107.493 18.7612C107.493 19.1882 107.488 19.5518 107.477 19.8526C107.468 20.1534 107.463 20.3048 107.463 20.3048ZM118.089 30.0871C117.877 30.0871 117.715 30.0949 117.609 30.115C117.502 30.1357 117.414 30.168 117.346 30.2165C117.281 30.267 117.22 30.3479 117.172 30.4637C117.123 30.5801 117.07 30.7367 117.013 30.9314C116.916 31.2801 116.808 31.6236 116.691 31.9652C116.575 32.3035 116.469 32.6471 116.37 32.9984C116.236 33.6582 115.848 33.9869 115.208 33.9869C114.508 34.027 113.816 34.0451 113.126 34.0451C112.436 34.0451 111.743 34.0548 111.043 34.0749C110.733 34.0749 110.626 33.9183 110.725 33.6078C111.19 32.2104 111.65 30.8104 112.108 29.4027C112.562 27.9949 113.015 26.582 113.459 25.1672C113.732 24.3132 113.985 23.4638 114.217 22.6195C114.45 21.7759 114.702 20.9265 114.975 20.0726C115.168 19.489 115.368 18.9074 115.572 18.3239C115.774 17.7423 115.963 17.151 116.138 16.55C116.254 16.1605 116.431 15.8901 116.663 15.7336C116.896 15.5796 117.187 15.5007 117.535 15.5007C117.945 15.5214 118.347 15.5337 118.743 15.544C119.143 15.5544 119.534 15.5589 119.924 15.5589C120.371 15.5589 120.815 15.5544 121.263 15.544C121.707 15.5337 122.155 15.5311 122.602 15.5311C122.855 15.5311 123.103 15.5265 123.346 15.5162C123.588 15.5058 123.833 15.5007 124.086 15.5007C124.319 15.5007 124.503 15.511 124.639 15.5311C124.776 15.5492 124.882 15.5893 124.96 15.6475C125.039 15.7057 125.101 15.797 125.15 15.9231C125.198 16.0493 125.251 16.2291 125.309 16.4614C125.698 17.9752 126.085 19.4838 126.474 20.9899C126.863 22.4934 127.26 24.0021 127.666 25.5159C127.978 26.6603 128.293 27.7853 128.614 28.8922C128.932 29.9992 129.259 31.1158 129.59 32.2408C129.706 32.7053 129.787 33.0592 129.835 33.3018C129.885 33.5444 129.875 33.7262 129.807 33.8426C129.739 33.9591 129.602 34.0218 129.4 34.0296C129.196 34.0399 128.9 34.0348 128.511 34.0173C127.851 34.0173 127.197 34.0069 126.547 33.9869C125.895 33.9688 125.24 33.9487 124.581 33.9287C124.232 33.9086 124.027 33.7339 123.969 33.4053C123.932 33.1148 123.884 32.8166 123.826 32.5157C123.767 32.2149 123.709 31.9193 123.648 31.6288C123.611 31.4748 123.573 31.328 123.533 31.1915C123.494 31.0575 123.456 30.9113 123.416 30.7548C123.32 30.3679 123.087 30.1732 122.719 30.1732C122.466 30.1932 122.218 30.1984 121.975 30.1887C121.733 30.1784 121.495 30.1732 121.263 30.1732C121.263 30.1732 121.147 30.168 120.914 30.1583C120.68 30.148 120.399 30.1402 120.07 30.1305C119.739 30.1201 119.39 30.1104 119.021 30.1001C118.653 30.0897 118.341 30.0871 118.089 30.0871ZM121.03 20.0143C120.99 19.9561 120.932 20.0195 120.856 20.2013C120.778 20.3857 120.72 20.5073 120.68 20.5655L119.893 22.9256C119.681 23.5447 119.459 24.1767 119.224 24.8159C118.991 25.4577 118.768 26.0968 118.554 26.7393C118.458 27.0097 118.442 27.1837 118.511 27.262C118.579 27.3403 118.759 27.3784 119.049 27.3784C119.517 27.3985 119.981 27.4088 120.447 27.4088C120.914 27.4088 121.38 27.4088 121.844 27.4088C122.213 27.3888 122.428 27.3454 122.486 27.2775C122.544 27.2089 122.524 26.9818 122.428 26.5924C122.271 25.7967 122.107 25.0106 121.933 24.2343C121.759 23.4586 121.584 22.6726 121.407 21.8769C121.369 21.7404 121.336 21.5663 121.306 21.3535C121.278 21.1387 121.243 20.9343 121.205 20.7421C121.165 20.5474 121.132 20.3786 121.101 20.2317C121.073 20.0849 121.048 20.0143 121.03 20.0143ZM132.878 16.2291C132.878 15.938 132.918 15.7484 132.994 15.6605C133.072 15.5744 133.246 15.5388 133.519 15.5589C133.984 15.5589 134.422 15.5692 134.829 15.5893C135.236 15.6074 135.683 15.6275 136.168 15.6475C136.264 15.665 136.372 15.6753 136.489 15.6753C136.605 15.6753 136.721 15.6753 136.837 15.6753C137.227 15.6753 137.459 15.7109 137.537 15.7763C137.613 15.8448 137.662 16.0745 137.682 16.4614C137.719 17.0831 137.744 17.7048 137.755 18.3239C137.765 18.9456 137.78 19.5673 137.797 20.189C137.818 20.3048 137.818 20.4161 137.797 20.5222C137.78 20.6283 137.78 20.7421 137.797 20.8586C137.818 20.9543 137.838 21.0553 137.856 21.1639C137.876 21.27 137.904 21.3716 137.944 21.4699C138.04 21.4298 138.129 21.3865 138.204 21.3386C138.283 21.2907 138.351 21.2351 138.409 21.1769C139.283 20.363 140.145 19.524 141 18.6597C141.854 17.7954 142.708 16.9466 143.562 16.1127C143.777 15.9179 143.989 15.7588 144.204 15.6326C144.416 15.5058 144.659 15.4528 144.932 15.4709C145.667 15.491 146.4 15.5058 147.128 15.5162C147.855 15.5265 148.588 15.5388 149.327 15.5589C149.385 15.5589 149.453 15.5893 149.531 15.6475C149.607 15.7057 149.657 15.7536 149.675 15.7918C149.695 15.85 149.685 15.9231 149.647 16.0117C149.607 16.0971 149.569 16.1605 149.531 16.1987C148.793 16.9362 148.055 17.6892 147.317 18.4552C146.58 19.2231 145.844 19.9742 145.106 20.7117C144.833 20.9847 144.558 21.2403 144.275 21.4829C143.994 21.7255 143.719 21.983 143.446 22.256C143.175 22.5063 143.034 22.683 143.024 22.7787C143.014 22.8751 143.108 23.0795 143.299 23.3907C143.688 24.0499 144.09 24.7046 144.509 25.3567C144.927 26.0063 145.339 26.6603 145.746 27.3202C146.309 28.1949 146.9 29.1297 147.522 30.1305C148.144 31.1287 148.735 32.0661 149.299 32.9382C149.453 33.173 149.486 33.3852 149.4 33.58C149.311 33.7747 149.132 33.8905 148.861 33.9287C148.763 33.9487 148.657 33.9591 148.54 33.9591C148.424 33.9591 148.308 33.9591 148.192 33.9591C147.785 33.9765 147.37 33.9869 146.954 33.9869C146.536 33.9869 146.125 34.0069 145.718 34.0451C145.27 34.0852 144.887 34.0218 144.568 33.8556C144.247 33.6912 143.961 33.4331 143.709 33.0844C143.436 32.6956 143.135 32.2408 142.807 31.7174C142.475 31.1915 142.175 30.7367 141.904 30.3479C141.495 29.7663 141.088 29.1776 140.682 28.5863C140.272 27.995 139.865 27.4088 139.458 26.8246C139.302 26.5924 139.172 26.4714 139.064 26.4611C138.957 26.4507 138.798 26.5445 138.583 26.7393C138.197 27.0498 138.012 27.4768 138.03 28.0202C138.07 28.8923 138.094 29.7566 138.103 30.6105C138.114 31.4645 138.129 32.3288 138.147 33.2008C138.167 33.5897 138.134 33.8374 138.045 33.9435C137.959 34.0496 137.73 34.1027 137.361 34.1027C136.779 34.1027 136.153 34.093 135.483 34.0749C134.813 34.0548 134.189 34.027 133.605 33.9869C133.16 33.9688 132.928 33.7262 132.908 33.2591C132.888 32.9104 132.878 32.2984 132.878 31.4244C132.878 30.5523 132.878 29.5463 132.878 28.4122C132.878 27.2775 132.878 26.0742 132.878 24.803C132.878 23.5324 132.878 22.3239 132.878 21.1769C132.878 20.0318 132.878 19.0135 132.878 18.1214C132.878 17.2293 132.878 16.5979 132.878 16.2291ZM154.828 34.1331C154.752 34.113 154.648 34.093 154.522 34.0749C154.399 34.0548 154.257 34.0348 154.1 34.0173C153.809 33.9591 153.552 33.8426 153.329 33.666C153.107 33.4913 152.927 33.2843 152.791 33.0417C152.654 32.7991 152.568 32.5209 152.528 32.2104C152.49 31.9018 152.518 31.5913 152.617 31.2801C152.771 30.7748 153.102 30.4009 153.607 30.1583C154.11 29.9157 154.644 29.8827 155.207 30.0567C155.556 30.1732 155.866 30.32 156.139 30.4941C156.953 31.0375 157.226 31.7452 156.953 32.6193C156.819 33.0643 156.561 33.4279 156.182 33.7113C155.803 33.9921 155.353 34.1331 154.828 34.1331ZM159.225 19.9561C159.245 19.2561 159.258 18.6396 159.268 18.1065C159.278 17.5734 159.293 16.9666 159.311 16.2867C159.311 16.0926 159.316 15.938 159.326 15.8222C159.336 15.7057 159.372 15.6171 159.43 15.5589C159.488 15.5007 159.569 15.4631 159.675 15.4431C159.784 15.4224 159.932 15.4049 160.127 15.3849C160.281 15.3648 160.433 15.3596 160.579 15.3693C160.724 15.3797 160.875 15.3849 161.03 15.3849C161.244 15.3849 161.466 15.3797 161.699 15.3693C161.931 15.3596 162.157 15.3545 162.369 15.3545C162.505 15.3545 162.728 15.3493 163.038 15.3415C163.35 15.3318 163.678 15.3118 164.029 15.2839C164.378 15.2535 164.711 15.2328 165.032 15.2257C165.353 15.2154 165.581 15.2102 165.717 15.2102C166.104 15.2484 166.483 15.2839 166.852 15.3118C167.221 15.3415 167.59 15.3745 167.959 15.4127C168.833 15.511 169.622 15.7536 170.332 16.1405C171.039 16.5293 171.724 16.9867 172.383 17.51C172.48 17.5883 172.563 17.664 172.631 17.7423C172.7 17.8206 172.781 17.9066 172.879 18.0056C173.344 18.4326 173.688 18.8544 173.913 19.2717C174.135 19.6883 174.267 20.1204 174.304 20.5655C174.345 21.0126 174.314 21.4777 174.218 21.9629C174.12 22.4481 173.986 22.9838 173.809 23.5647C173.402 24.8664 172.821 25.8749 172.062 26.5924C171.307 27.3098 170.316 27.8533 169.093 28.2227C168.414 28.4375 167.731 28.5636 167.042 28.6011C166.351 28.6393 165.649 28.6393 164.931 28.6011C164.484 28.5636 164.213 28.5862 164.115 28.6749C164.019 28.7609 163.961 29.0288 163.941 29.4758C163.92 30.1357 163.918 30.7949 163.925 31.4548C163.936 32.114 163.941 32.7739 163.941 33.4331C163.941 33.8226 163.892 34.0652 163.797 34.1609C163.698 34.2599 163.445 34.2974 163.038 34.2774C162.495 34.2599 161.957 34.2392 161.424 34.2191C160.888 34.2017 160.342 34.1816 159.778 34.1609C159.41 34.1434 159.215 33.9183 159.195 33.4913C159.177 32.968 159.167 32.4452 159.167 31.9193C159.167 31.3965 159.167 30.8732 159.167 30.3479V24.4672C159.167 24.4672 159.167 24.3029 159.167 23.9717C159.167 23.643 159.167 23.2438 159.167 22.7787C159.167 22.3142 159.172 21.8238 159.182 21.3082C159.19 20.7952 159.205 20.343 159.225 19.9561ZM165.745 19.6048C165.591 19.6048 165.427 19.61 165.252 19.6204C165.076 19.6301 164.911 19.6352 164.757 19.6352C164.583 19.6553 164.441 19.6986 164.335 19.7666C164.226 19.8351 164.163 19.9639 164.145 20.1586C164.145 20.7221 164.14 21.303 164.13 21.9047C164.12 22.5063 164.105 23.0899 164.087 23.6534C164.087 23.9438 164.241 24.1082 164.552 24.1463C165.252 24.2246 165.93 24.2194 166.589 24.1334C167.251 24.0454 167.89 23.8377 168.512 23.5072C168.861 23.3124 169.134 23.0595 169.326 22.7489C169.482 22.516 169.578 22.2404 169.619 21.9196C169.657 21.5987 169.627 21.2933 169.53 21.0022C169.435 20.7117 169.278 20.4543 169.065 20.2317C168.85 20.0092 168.57 19.8675 168.222 19.8099C168.007 19.7717 167.764 19.7362 167.494 19.7083C167.221 19.6786 166.953 19.6553 166.693 19.6352C166.43 19.6152 166.208 19.6048 166.023 19.6048C165.838 19.6048 165.745 19.6048 165.745 19.6048ZM181.554 15.3545C181.825 15.3545 182.04 15.3693 182.193 15.3997C182.351 15.4276 182.462 15.4754 182.53 15.544C182.598 15.6119 182.631 15.718 182.631 15.8649C182.631 16.0117 182.611 16.1987 182.573 16.4335C182.477 16.9944 182.472 17.5379 182.558 18.0632C182.646 18.5865 182.767 19.1099 182.921 19.6352C183.232 20.6639 183.748 21.4499 184.466 21.9933C185.184 22.5368 185.997 22.9734 186.91 23.3021C187.162 23.4004 187.331 23.4185 187.42 23.3603C187.508 23.3021 187.619 23.128 187.756 22.8369C187.988 22.2734 188.221 21.7022 188.453 21.1187C188.686 20.5377 188.908 19.9561 189.123 19.3726C189.336 18.8291 189.54 18.2857 189.735 17.7423C189.929 17.1995 190.131 16.6561 190.346 16.1127C190.442 15.764 190.647 15.5893 190.958 15.5893C191.637 15.5692 192.315 15.5492 192.995 15.5311C193.675 15.511 194.354 15.511 195.034 15.5311C195.479 15.5311 195.769 15.6171 195.906 15.7918C196.042 15.9658 196.032 16.277 195.878 16.724C195.469 17.9267 195.034 19.0918 194.566 20.2168C193.887 22.0412 193.121 23.8028 192.267 25.501C191.412 27.1992 190.5 28.8819 189.53 30.5523C189.219 31.0957 188.85 31.5706 188.423 31.9775C187.998 32.387 187.521 32.7558 186.998 33.0844C186.454 33.4156 185.896 33.7113 185.325 33.9714C184.751 34.2347 184.125 34.3938 183.447 34.454C183.058 34.4721 182.669 34.4773 182.282 34.4669C181.893 34.4566 181.506 34.386 181.117 34.2495C180.574 34.0749 180.036 33.9086 179.502 33.754C178.967 33.6 178.459 33.3574 177.974 33.0262C177.683 32.8321 177.521 32.693 177.493 32.6044C177.463 32.5157 177.516 32.2984 177.653 31.9497C177.847 31.4063 178.027 30.868 178.191 30.3323C178.355 29.7993 178.545 29.2714 178.76 28.748C178.914 28.321 179.093 28.0836 179.298 28.0331C179.502 27.9846 179.798 28.0959 180.185 28.3689C180.4 28.5229 180.617 28.6645 180.842 28.7907C181.064 28.9175 181.302 29.0288 181.554 29.1245C182.292 29.3975 183.01 29.3775 183.707 29.0663C184.407 28.7558 184.961 28.301 185.368 27.6993C185.58 27.4263 185.512 27.2342 185.163 27.1158C184.777 26.9612 184.398 26.8072 184.028 26.6506C183.659 26.4966 183.28 26.3394 182.894 26.1855C182.156 25.8542 181.492 25.4428 180.9 24.9472C180.306 24.4517 179.758 23.9238 179.254 23.3603C178.729 22.7586 178.338 22.0994 178.074 21.3813C177.812 20.6639 177.614 19.916 177.478 19.1403C177.382 18.5762 177.304 18.0483 177.246 17.5527C177.188 17.0578 177.129 16.5196 177.072 15.938C177.051 15.665 177.072 15.4961 177.129 15.4276C177.188 15.3596 177.352 15.3266 177.625 15.3266C177.799 15.3266 178.074 15.3266 178.454 15.3266C178.833 15.3266 179.225 15.3266 179.632 15.3266C180.04 15.3266 180.422 15.3318 180.781 15.3415C181.142 15.3493 181.398 15.3545 181.554 15.3545Z"
            fill="#F5E8D5" />

    </symbol>

    <symbol id='icon-flame' viewBox="0 0 47 52">
        <path fill-rule="evenodd" clip-rule="evenodd"
            d="M22.0646 0.879768C20.7403 2.67631 19.2291 5.40574 18.4534 7.41254C17.8142 9.05964 17.6726 9.91166 17.6525 12.2516C17.637 13.8107 17.516 15.0897 17.3795 15.0897C17.2456 15.0897 16.7526 14.8193 16.2875 14.4855C14.8927 13.4925 14.337 13.8056 12.8936 16.3985C11.3145 19.2366 10.0329 22.3523 9.58844 24.4296C9.18928 26.2921 9.40406 29.5954 10.0381 31.3641C10.2936 32.0692 10.4502 32.6987 10.3894 32.7589C10.326 32.8197 9.03467 32.5189 7.51889 32.0893C4.3599 31.1998 3.16177 31.2754 1.75921 32.458C-1.41983 35.1292 -0.103317 39.5821 4.20528 40.7369C6.03741 41.2299 6.04258 41.336 4.26868 41.8846C2.07298 42.5645 1.29924 43.1124 0.599256 44.4846C-0.146016 45.9454 -0.146016 47.4062 0.599256 48.8669C1.25654 50.1556 2.9347 51.1895 4.37478 51.1895C4.86516 51.1895 9.21451 50.0748 14.0387 48.7123C18.8629 47.3531 22.9897 46.2384 23.2071 46.2384C23.4264 46.2384 27.594 47.3531 32.4635 48.7123C37.3356 50.0748 41.738 51.1895 42.2432 51.1895C44.404 51.1895 46.5926 48.9271 46.5926 46.6984C46.5926 45.2732 45.6118 43.4307 44.4952 42.7515C43.9945 42.448 42.951 42.0463 42.1779 41.8619C40.5405 41.4673 40.5702 41.1943 42.2937 40.7498C44.1265 40.2769 45.3291 39.4204 45.9987 38.1116C47.0351 36.0796 46.6075 33.9389 44.8769 32.4813C43.4413 31.2729 42.2613 31.1946 39.0868 32.0893C37.571 32.5189 36.2798 32.8197 36.2164 32.7589C36.1555 32.6987 36.3147 32.0692 36.5702 31.3641C37.2903 29.3625 37.4268 26.032 36.8782 23.8234C36.2772 21.4 33.5807 15.954 30.6818 11.3039C29.4358 9.30224 27.4167 5.96146 26.1992 3.88221C23.7046 -0.378521 23.242 -0.714931 22.0646 0.879768ZM22.1837 5.26406C20.1316 8.85521 19.6056 11.289 20.116 14.7941C20.5456 17.7202 20.3134 18.1472 18.4334 17.8897C17.7431 17.7959 16.783 17.5157 16.3004 17.2654L15.4206 16.8106L13.8492 20.0983C12.9849 21.9052 12.1128 24.1973 11.9135 25.1878C11.0162 29.6277 13.4824 34.6136 17.6823 36.8527C24.6698 40.5777 33.0425 36.7162 34.6948 29.0086C35.3773 25.825 34.273 22.1983 30.7957 16.2141C26.4618 8.7517 23.4419 3.76575 23.2524 3.75023C23.1437 3.74311 22.6611 4.42305 22.1837 5.26406ZM22.3603 19.08C21.7515 19.7522 20.3994 22.6557 20.3942 23.2948C20.3916 23.6112 20.1083 23.8156 19.5907 23.8764C18.9334 23.9521 18.6229 24.3008 17.844 25.8321C16.3004 28.8747 16.6187 31.1596 18.87 33.191C21.3899 35.4657 25.2158 35.4657 27.7357 33.191C30.7556 30.4668 30.3836 27.9955 25.9967 21.64C23.9097 18.6123 23.222 18.1297 22.3603 19.08ZM22.9969 22.8122C22.7394 23.4669 22.7368 24.0304 22.9923 25.1321C23.4245 27.0225 23.4167 27.6442 22.9542 27.9528C22.4437 28.2937 20.9855 28.0006 20.3586 27.432C19.8838 27.0024 19.8256 27.0529 19.4969 28.1469C18.7821 30.5353 20.455 32.405 23.2977 32.3953C25.1427 32.3901 26.2898 31.7813 26.9826 30.4389C27.6548 29.1405 27.2906 27.9877 25.2036 24.799L23.3358 21.9479L22.9969 22.8122ZM3.5991 34.0152C2.26447 34.5509 1.97141 36.1779 2.99745 37.3457C3.493 37.9117 4.51387 38.3316 7.21548 39.082C10.6294 40.0298 10.8364 40.0524 12.1632 39.6533C12.9266 39.423 14.0458 39.1021 14.6527 38.9378L15.7544 38.6421L14.1345 37.323C12.717 36.1682 12.0145 35.8622 8.51906 34.8614C6.32335 34.2352 4.46082 33.7293 4.37995 33.7396C4.29909 33.75 3.9478 33.8735 3.5991 34.0152ZM37.9424 34.8743C34.6443 35.8396 33.8686 36.1857 32.4965 37.3029C28.9713 40.1734 24.3237 41.3689 20.3082 40.4387C19.3682 40.2193 18.0769 40.4969 11.4303 42.3491C3.14689 44.6567 2.3434 45.041 2.3434 46.7062C2.3434 47.5097 3.52082 48.8592 4.2234 48.8592C4.47376 48.8592 13.2902 46.4358 23.8159 43.4741C40.6996 38.723 43.0344 37.9978 43.6361 37.3127C44.1614 36.7162 44.2752 36.3326 44.1387 35.6423C43.7292 33.6005 42.7258 33.477 37.9424 34.8743ZM31.5183 43.7542C29.7114 44.275 28.1749 44.7628 28.1018 44.8385C27.955 44.9827 41.8318 48.8741 42.458 48.8644C43.1024 48.8566 44.2623 47.467 44.2623 46.7062C44.2623 45.3288 43.1832 44.5959 39.7389 43.6384C37.9702 43.148 36.1355 42.7586 35.6626 42.7741C35.1903 42.789 33.3252 43.2315 31.5183 43.7542Z"
            fill="#D85E0F" />
    </symbol>


    <symbol id='icon-burger-menu' viewBox="0 0 32 32" width="32" height="32" fill="none">
        <path d="M5.79688 6.89533C12.4448 8.55787 19.7494 6.6665 26.6715 6.6665" stroke="white" stroke-width="1.65812"
            stroke-miterlimit="10" stroke-linecap="round" stroke-linejoin="round" />
        <path d="M5.33594 16.3001C11.7871 16.3001 18.1676 16.0713 24.6055 16.0713" stroke="white" stroke-width="1.65812"
            stroke-miterlimit="10" stroke-linecap="round" stroke-linejoin="round" />
        <path d="M5.5625 25.9351C12.5211 25.9351 19.4796 25.9351 26.4382 25.9351" stroke="white" stroke-width="1.65812"
            stroke-miterlimit="10" stroke-linecap="round" stroke-linejoin="round" />
    </symbol>

    <symbol id='icon-cross' viewBox="0 0 15 18" fill="none">
        <path d="M13.774 0.770996C9.61733 5.7595 6.29166 11.3855 2.58594 16.7179" stroke="white" stroke-width="1.5418"
            stroke-miterlimit="10" stroke-linecap="round" stroke-linejoin="round" />
        <path
            d="M1.04199 1.92799C0.956424 1.92799 0.719758 1.87248 0.784514 1.92799C3.27761 4.0711 5.93491 6.02303 8.3725 8.23012C10.5333 10.1867 12.0428 13.0282 13.6455 15.4319"
            stroke="white" stroke-width="1.5418" stroke-miterlimit="10" stroke-linecap="round"
            stroke-linejoin="round" />
    </symbol>

    <symbol id='icon-categories-arrow' viewBox="0 0 47 17" fill="none">
        <path xmlns="http://www.w3.org/2000/svg"
            d="M2.5 4.64062C14.0001 6.46111 25.1171 6.89815 36.7041 7.48732C37.3585 7.52059 44.2027 7.71589 43.8865 7.39973C41.2073 4.7205 35.9815 5.25379 33.2443 3.06401C30.3244 0.728078 40.1537 6.3918 43.8865 6.61142C45.2359 6.6908 41.1822 8.04092 40.6457 8.27564C37.4423 9.67711 35.2847 12.06 32.8501 14.4946"
            stroke="#F5E8D5" stroke-width="5" stroke-linecap="round" />
    </symbol>

    <symbol id='icon-whatsapp' viewBox="0 0 24 24">
        <path
            d="M19.1066 4.93702C18.1727 4.00352 17.0638 3.26355 15.8433 2.75955C14.6229 2.25555 13.315 1.99744 11.9946 2.00002C6.45156 2.00002 1.94356 6.49202 1.93956 12.006C1.93859 13.7634 2.40077 15.4901 3.27956 17.012L1.85156 22.2L7.18356 20.808C8.65955 21.608 10.3117 22.0273 11.9906 22.028H11.9946C17.5346 22.028 22.0466 17.535 22.0516 12.016C22.0546 10.6997 21.7958 9.39598 21.2902 8.18066C20.7846 6.96534 20.0423 5.86273 19.1066 4.93702ZM11.9946 20.337C10.4977 20.3382 9.02787 19.9376 7.73856 19.177L7.43456 18.994L4.27156 19.82L5.11556 16.748L4.91756 16.431C4.08072 15.107 3.63782 13.5723 3.64056 12.006C3.64056 7.41802 7.39056 3.68902 12.0006 3.68902C13.0976 3.68672 14.1843 3.90089 15.1984 4.31924C16.2126 4.73759 17.1342 5.35192 17.9106 6.12702C18.6873 6.8971 19.3033 7.81378 19.7228 8.82386C20.1423 9.83393 20.3571 10.9173 20.3546 12.011C20.3496 16.604 16.5986 20.337 11.9946 20.337ZM16.5796 14.104C16.3296 13.979 15.0946 13.374 14.8636 13.288C14.6326 13.206 14.4636 13.163 14.2996 13.413C14.1306 13.663 13.6496 14.229 13.5036 14.392C13.3596 14.56 13.2096 14.579 12.9596 14.454C12.7086 14.329 11.8996 14.065 10.9396 13.211C10.1916 12.549 9.69056 11.728 9.54156 11.479C9.39656 11.229 9.52656 11.095 9.65156 10.969C9.76256 10.859 9.90256 10.677 10.0286 10.533C10.1536 10.389 10.1966 10.283 10.2786 10.116C10.3606 9.94802 10.3226 9.80402 10.2586 9.67902C10.1966 9.55402 9.69556 8.32102 9.48356 7.82102C9.28056 7.33202 9.07356 7.39902 8.91956 7.39402C8.77456 7.38402 8.60556 7.38402 8.43756 7.38402C8.31037 7.38736 8.18524 7.41688 8.06996 7.47073C7.95469 7.52459 7.85175 7.60162 7.76756 7.69702C7.53556 7.94702 6.88956 8.55102 6.88956 9.78402C6.88956 11.018 7.79156 12.204 7.91656 12.371C8.04156 12.539 9.68656 15.063 12.2066 16.148C12.8046 16.408 13.2726 16.561 13.6386 16.676C14.2416 16.868 14.7866 16.839 15.2206 16.776C15.7026 16.705 16.7056 16.172 16.9176 15.586C17.1246 15.001 17.1246 14.502 17.0616 14.396C16.9996 14.291 16.8306 14.228 16.5796 14.104Z"
            fill="#8A6A4A" />
    </symbol>

    <symbol id='icon-vk' viewBox="0 0 21 12">
        <path
            d="M3.085 0H0.788C0.131 0 0 0.297 0 0.625C0 1.211 0.779 4.115 3.627 7.955C5.525 10.578 8.2 12 10.634 12C12.094 12 12.274 11.684 12.274 11.14V9.158C12.274 8.526 12.414 8.4 12.876 8.4C13.216 8.4 13.8 8.564 15.163 9.829C16.721 11.328 16.978 12 17.854 12H20.151C20.808 12 21.136 11.684 20.947 11.061C20.74 10.44 19.996 9.539 19.009 8.471C18.474 7.861 17.67 7.206 17.427 6.878C17.087 6.457 17.184 6.269 17.427 5.895C17.427 5.895 20.226 2.101 20.518 0.813C20.664 0.344 20.518 0 19.823 0H17.526C16.942 0 16.672 0.297 16.526 0.625C16.526 0.625 15.358 3.365 13.703 5.145C13.168 5.66 12.924 5.825 12.633 5.825C12.486 5.825 12.275 5.66 12.275 5.192V0.812C12.275 0.25 12.105 0 11.618 0H8.008C7.643 0 7.423 0.26 7.423 0.508C7.423 1.041 8.251 1.164 8.336 2.663V5.918C8.336 6.632 8.202 6.761 7.91 6.761C7.131 6.761 5.237 4.009 4.113 0.859C3.893 0.247 3.673 0 3.085 0Z"
            fill="#8A6A4A" />
    </symbol>

    <symbol id='icon-max' viewBox="0 0 20 20">
        <path fill-rule="evenodd" clip-rule="evenodd"
            d="M10.215 19.943C8.252 19.943 7.34 19.655 5.755 18.504C4.752 19.799 1.575 20.811 1.437 19.08C1.437 17.78 1.151 16.682 0.827 15.482C0.438 14.005 0 12.36 0 9.976C0 4.283 4.651 0 10.162 0C15.678 0 20 4.494 20 10.029C20.0099 12.644 18.985 15.1568 17.149 17.019C16.2424 17.9385 15.1632 18.6701 13.9733 19.1719C12.7835 19.6736 11.5063 19.9357 10.215 19.943ZM10.296 4.921C7.612 4.781 5.521 6.648 5.057 9.573C4.675 11.995 5.353 14.945 5.931 15.099C6.208 15.166 6.905 14.599 7.34 14.163C8.05783 14.6616 8.89482 14.9615 9.766 15.032C11.104 15.0962 12.4134 14.6309 13.411 13.737C14.411 12.8412 15.0208 11.5896 15.11 10.25C15.1625 8.90726 14.6876 7.59727 13.787 6.6C12.8888 5.60515 11.6351 5.00381 10.297 4.926V4.92L10.296 4.921Z"
            fill="#8A6A4A" />
    </symbol>




    <symbol id='icon-telegram' viewBox="0 0 17 15">
        <path
            d="M1.16913 6.45618C5.73213 4.34018 8.77513 2.94418 10.2981 2.27018C14.6451 0.345181 15.5481 0.0101812 16.1371 0.000181202C16.2671 -0.0028188 16.5561 0.030181 16.7441 0.193181C16.9021 0.330181 16.9451 0.515181 16.9661 0.644181C16.9871 0.774181 17.0131 1.06918 16.9921 1.30018C16.7571 3.93618 15.7371 10.3312 15.2191 13.2832C14.9991 14.5322 14.5671 14.9512 14.1491 14.9922C13.2401 15.0812 12.5491 14.3522 11.6691 13.7372C10.2921 12.7762 9.51313 12.1772 8.17613 11.2392C6.63013 10.1552 7.63213 9.55918 8.51313 8.58518C8.74313 8.33018 12.7491 4.45118 12.8261 4.09918C12.8361 4.05518 12.8461 3.89118 12.7541 3.80418C12.6621 3.71818 12.5271 3.74718 12.4301 3.77118C12.2911 3.80418 10.0901 5.35318 5.82713 8.41718C5.20213 8.87418 4.63613 9.09718 4.12913 9.08518C3.57013 9.07218 2.49513 8.74918 1.69613 8.47218C0.716133 8.13218 -0.0638676 7.95318 0.00413238 7.37718C0.0391324 7.07718 0.428133 6.77018 1.16913 6.45718V6.45618Z"
            fill="#8A6A4A" />
    </symbol>


    <symbol id='icon-arrow' viewBox="0 0 18 12" fill="none">
        <path
            d="M0.98083 6.60994C0.902273 6.57139 0.657847 6.49574 0.745133 6.49283C1.88203 6.45064 3.01963 6.49283 4.15725 6.49283C5.0592 6.49283 5.96118 6.49283 6.86313 6.49283C10.0469 6.49283 13.2124 6.375 16.3925 6.375"
            stroke="#F5E8D5" stroke-width="1.45476" stroke-miterlimit="10" stroke-linecap="round"
            stroke-linejoin="round" />
        <path
            d="M11.2188 0.727539C12.5942 0.727539 13.3762 2.14811 14.3952 2.96351C17.3637 5.33767 17.8306 5.42714 15.3365 8.37521C14.5931 9.25316 13.7246 9.97616 12.8655 10.7275"
            stroke="#F5E8D5" stroke-width="1.45476" stroke-miterlimit="10" stroke-linecap="round"
            stroke-linejoin="round" />
    </symbol>


    <symbol id="icon-btn-arrow" width="47" height="17" viewbox="0 0 47 17" fill="none">
        <path
            d="M2.5 4.64042C14.0001 6.46091 25.1171 6.89795 36.7041 7.48712C37.3585 7.52039 44.2027 7.71569 43.8865 7.39953C41.2073 4.7203 35.9815 5.25359 33.2443 3.06381C30.3244 0.727875 40.1537 6.3916 43.8865 6.61122C45.2359 6.6906 41.1822 8.04072 40.6457 8.27544C37.4423 9.67691 35.2847 12.0598 32.8501 14.4944"
            stroke="#F5E8D5" stroke-width="var(--arrow-stroke, 5)" stroke-linecap="round" />
    </symbol>



</svg>